HIERARCHY
ROOT Hips
{
	OFFSET -0.001795 -0.223333 0.028219
	CHANNELS 6 Xposition Yposition Zposition Zrotation Yrotation Xrotation 
	JOINT LeftUpLeg
	{
		OFFSET 0.069520 -0.091406 -0.006815
		CHANNELS 3 Zrotation Yrotation Xrotation
		JOINT LeftLeg
		{
			OFFSET 0.034277 -0.375199 -0.004496
			CHANNELS 3 Zrotation Yrotation Xrotation
			JOINT LeftFoot
			{
				OFFSET -0.013596 -0.397961 -0.043693
				CHANNELS 3 Zrotation Yrotation Xrotation
				JOINT LeftToe
				{
					OFFSET 0.026358 -0.055791 0.119288
					CHANNELS 3 Zrotation Yrotation Xrotation
					End Site
					{
						OFFSET 0.000000 0.000000 0.000000
					}
				}
			}
		}
	}
	JOINT RightUpLeg
	{
		OFFSET -0.067670 -0.090522 -0.004320
		CHANNELS 3 Zrotation Yrotation Xrotation
		JOINT RightLeg
		{
			OFFSET -0.038290 -0.382569 -0.008850
			CHANNELS 3 Zrotation Yrotation Xrotation
			JOINT RightFoot
			{
				OFFSET 0.015774 -0.398415 -0.042312
				CHANNELS 3 Zrotation Yrotation Xrotation
				JOINT RightToe
				{
					OFFSET -0.025372 -0.048144 0.123348
					CHANNELS 3 Zrotation Yrotation Xrotation
					End Site
					{
						OFFSET 0.000000 0.000000 0.000000
					}
				}
			}
		}
	}
	JOINT Spine
	{
		OFFSET -0.002533 0.108963 -0.026696
		CHANNELS 3 Zrotation Yrotation Xrotation
		JOINT Spine1
		{
			OFFSET 0.005487 0.135180 0.001092
			CHANNELS 3 Zrotation Yrotation Xrotation
			JOINT Spine2
			{
				OFFSET 0.001457 0.052922 0.025425
				CHANNELS 3 Zrotation Yrotation Xrotation
				JOINT Neck
				{
					OFFSET -0.002778 0.213870 -0.042857
					CHANNELS 3 Zrotation Yrotation Xrotation
					JOINT Head
					{
						OFFSET 0.005152 0.064970 0.051349
						CHANNELS 3 Zrotation Yrotation Xrotation
						End Site
						{
							OFFSET 0.000000 0.000000 0.000000
						}
					}
				}
				JOINT LeftShoulder
				{
					OFFSET 0.078845 0.121749 -0.034090
					CHANNELS 3 Zrotation Yrotation Xrotation
					JOINT LeftArm
					{
						OFFSET 0.090977 0.030469 -0.008868
						CHANNELS 3 Zrotation Yrotation Xrotation
						JOINT LeftForeArm
						{
							OFFSET 0.259612 -0.012772 -0.027456
							CHANNELS 3 Zrotation Yrotation Xrotation
							JOINT LeftHand
							{
								OFFSET 0.249234 0.008986 -0.001171
								CHANNELS 3 Zrotation Yrotation Xrotation
								End Site
								{
									OFFSET 0.000000 0.000000 0.000000
								}
							}
						}
					}
				}
				JOINT RightShoulder
				{
					OFFSET -0.081759 0.118833 -0.038615
					CHANNELS 3 Zrotation Yrotation Xrotation
					JOINT RightArm
					{
						OFFSET -0.096012 0.032551 -0.009143
						CHANNELS 3 Zrotation Yrotation Xrotation
						JOINT RightForeArm
						{
							OFFSET -0.253742 -0.013329 -0.021401
							CHANNELS 3 Zrotation Yrotation Xrotation
							JOINT RightHand
							{
								OFFSET -0.255298 0.007772 -0.005559
								CHANNELS 3 Zrotation Yrotation Xrotation
								End Site
								{
									OFFSET 0.000000 0.000000 0.000000
								}
							}
						}
					}
				}
			}
		}
	}
}
MOTION
Frames: 18
Frame Time: 0.050000
-0.006476 0.870671 -0.059057 -2.511070 8.270798 -5.693033 9.955835 -0.550697 -20.037861 -7.992165 0.428345 49.013812 5.076805 8.242894 -6.774824 0.000000 0.000000 0.000000 0.138548 2.238206 -26.770328 -6.075479 3.856569 54.941949 2.115222 6.449727 -1.868729 0.000000 0.000000 0.000000 1.788554 -2.335073 28.789398 -2.584664 1.038078 7.435434 -7.354301 4.488830 11.719010 8.318290 -2.949320 -17.357409 0.000000 0.000000 0.000000 4.623935 -37.160630 10.910147 -20.970675 -56.318171 4.413053 28.095726 -5.241671 -1.335794 0.000000 0.000000 0.000000 -5.225703 24.209677 7.452535 37.482606 56.779609 16.036632 -25.186382 7.593788 -0.693814 0.000000 0.000000 0.000000 
-0.006611 0.874148 -0.060256 -2.543043 8.640718 -5.347608 10.088984 -0.552720 -19.909696 -8.005050 0.392335 47.876186 5.110092 8.547748 -6.095166 0.000000 0.000000 0.000000 -0.075050 2.144252 -26.466376 -5.964715 3.619959 53.834136 2.269656 6.902678 -1.958037 0.000000 0.000000 0.000000 1.649176 -2.327031 28.735893 -2.600763 1.021597 7.740011 -7.432716 4.286536 11.834417 8.400660 -3.010809 -17.352713 0.000000 0.000000 0.000000 5.290699 -37.556735 10.890972 -18.483816 -56.296582 3.282307 27.318976 -4.410559 -1.104111 0.000000 0.000000 0.000000 -5.776246 24.269354 7.344443 36.525819 57.117749 15.708460 -25.696199 7.886429 -0.769107 0.000000 0.000000 0.000000 
-0.006901 0.878770 -0.061438 -2.700549 8.870249 -4.875472 10.037536 -0.568989 -19.554064 -7.530571 0.157787 46.125090 4.823672 7.990975 -5.716615 0.000000 0.000000 0.000000 0.056760 2.141121 -26.131177 -5.802899 3.383931 52.334338 2.245300 6.644165 -1.665054 0.000000 0.000000 0.000000 1.384295 -2.276364 28.661621 -2.433009 0.924082 7.528990 -7.344272 4.245064 12.007466 8.474448 -3.033460 -17.459170 0.000000 0.000000 0.000000 5.990127 -37.611667 10.763965 -15.978879 -56.106025 2.098660 26.655709 -3.676499 -0.917879 0.000000 0.000000 0.000000 -6.229615 24.298218 7.253909 35.871053 57.208438 15.434779 -25.969899 8.928652 -0.984547 0.000000 0.000000 0.000000 
-0.007335 0.883499 -0.062526 -2.808973 9.256336 -4.332683 9.973296 -0.600972 -19.374256 -6.970206 -0.142765 44.666103 4.552820 7.674126 -4.865376 0.000000 0.000000 0.000000 -0.086393 2.067105 -25.835270 -5.407839 2.978204 50.699527 2.466876 6.970511 -1.267428 0.000000 0.000000 0.000000 1.301433 -2.285595 28.610031 -2.300989 0.840488 7.381895 -7.233921 3.720907 12.178140 8.451539 -3.056426 -17.508536 0.000000 0.000000 0.000000 7.381883 -37.710271 10.505289 -12.970223 -56.561778 0.768399 25.611609 -2.239014 -0.572268 0.000000 0.000000 0.000000 -7.057814 24.450096 7.109835 35.246175 58.235448 15.508011 -25.970033 9.655418 -1.148230 0.000000 0.000000 0.000000 
-0.007826 0.887176 -0.063567 -3.032134 9.249359 -3.999672 9.948643 -0.593186 -18.893301 -6.300482 -0.403589 43.236397 4.259089 7.085308 -4.626412 0.000000 0.000000 0.000000 0.014552 2.065852 -25.398545 -4.936290 2.653157 49.221920 2.677929 7.296521 -0.903721 0.000000 0.000000 0.000000 1.109562 -2.226348 28.466273 -2.159874 0.761269 7.314464 -7.102765 3.420444 12.148464 8.243094 -2.986667 -17.339618 0.000000 0.000000 0.000000 8.876900 -37.665381 10.175169 -9.966372 -56.703270 -0.594260 24.547360 -0.979440 -0.298395 0.000000 0.000000 0.000000 -7.513110 24.828355 7.126765 34.947645 59.703420 15.935249 -26.378452 9.619744 -1.184719 0.000000 0.000000 0.000000 
-0.008306 0.890306 -0.064566 -3.194224 9.214908 -3.721653 10.036350 -0.582572 -18.779349 -5.940120 -0.524783 42.419253 4.001622 6.742322 -4.051363 0.000000 0.000000 0.000000 0.186139 2.091565 -25.139594 -4.764371 2.532158 47.938885 2.846400 7.566471 -0.631172 0.000000 0.000000 0.000000 0.876397 -2.168455 28.465692 -1.891499 0.607064 7.348796 -6.978894 2.858241 12.267815 8.093418 -2.974990 -17.278420 0.000000 0.000000 0.000000 10.502014 -37.753589 9.825821 -6.629431 -56.943976 -2.065598 23.514730 0.962948 0.071287 0.000000 0.000000 0.000000 -8.187145 25.496964 7.170252 33.430108 61.831830 15.865776 -26.150498 9.436040 -1.179853 0.000000 0.000000 0.000000 
-0.008714 0.892525 -0.065662 -3.457922 8.841899 -3.655121 10.188408 -0.540669 -18.588043 -5.691953 -0.569490 42.309986 4.053459 7.038454 -3.654244 0.000000 0.000000 0.000000 0.494439 2.166627 -24.904844 -4.412951 2.396285 46.888635 3.079168 8.028532 -0.397964 0.000000 0.000000 0.000000 0.846128 -2.146365 28.575617 -1.930504 0.631387 7.507299 -6.807040 2.586284 12.107218 7.980568 -3.068261 -16.646826 0.000000 0.000000 0.000000 11.889846 -38.200421 9.595431 -4.039712 -57.267022 -3.213543 22.677662 2.462393 0.328403 0.000000 0.000000 0.000000 -8.838024 25.706821 7.081028 33.444803 64.615286 16.976310 -26.201447 8.453315 -1.021102 0.000000 0.000000 0.000000 
-0.009081 0.893558 -0.066736 -3.709886 8.343861 -3.652353 10.378785 -0.491189 -18.488120 -5.496380 -0.574917 42.348548 4.113206 7.438910 -3.034468 0.000000 0.000000 0.000000 0.947264 2.288951 -24.852237 -4.567783 2.586579 46.526142 3.406709 8.682234 -0.088372 0.000000 0.000000 0.000000 0.561951 -2.038979 28.582684 -1.704680 0.477494 8.300801 -6.659945 2.372531 11.554249 7.707866 -3.009460 -16.209897 0.000000 0.000000 0.000000 13.071220 -38.019457 9.285004 -2.428315 -57.929889 -3.951068 21.804332 4.033949 0.570100 0.000000 0.000000 0.000000 -9.293618 26.329226 7.172559 32.383561 67.663357 17.525675 -25.165230 6.661446 -0.672999 0.000000 0.000000 0.000000 
-0.009412 0.893629 -0.067953 -3.854261 7.779048 -3.840051 10.478665 -0.445196 -18.459890 -5.490212 -0.519202 43.225971 4.197222 7.709077 -2.863763 0.000000 0.000000 0.000000 1.107269 2.364657 -24.979261 -4.304135 2.568815 46.439393 3.574086 8.853818 0.314713 0.000000 0.000000 0.000000 0.611205 -2.046758 28.989900 -1.923312 0.627668 8.209163 -6.469221 2.210369 11.998131 7.409034 -2.866119 -16.269406 0.000000 0.000000 0.000000 14.093240 -38.501709 9.082670 -1.582430 -58.333701 -4.318933 21.132913 5.045973 0.709075 0.000000 0.000000 0.000000 -10.185710 26.739345 7.046314 33.061347 71.149174 19.397438 -23.871768 4.220091 -0.227013 0.000000 0.000000 0.000000 
-0.009694 0.894096 -0.069362 -3.909051 7.205289 -4.035353 10.626606 -0.392399 -18.383298 -5.401003 -0.473148 43.612052 4.090865 7.601029 -2.582912 0.000000 0.000000 0.000000 1.264456 2.424751 -24.918496 -4.312087 2.701726 46.312361 3.991298 9.575847 0.823843 0.000000 0.000000 0.000000 0.409906 -1.992524 29.465051 -1.739874 0.530998 8.472197 -6.265303 2.130032 11.841622 7.329304 -2.796839 -16.580191 0.000000 0.000000 0.000000 14.291080 -38.844790 9.086407 -1.461649 -58.223665 -4.266979 20.131979 5.341674 0.717854 0.000000 0.000000 0.000000 -10.468414 27.787617 7.261738 31.578471 73.712243 19.376250 -22.153342 1.197096 0.268268 0.000000 0.000000 0.000000 
-0.009970 0.896031 -0.071231 -3.905484 6.861333 -4.224407 10.412427 -0.391331 -18.088968 -5.087765 -0.557519 43.392229 4.189912 7.929149 -2.280291 0.000000 0.000000 0.000000 1.303541 2.435006 -24.712180 -4.176704 2.685499 45.715550 4.331538 9.737639 1.841284 0.000000 0.000000 0.000000 0.317424 -1.977503 29.887734 -1.874677 0.609972 8.783126 -6.050194 1.925431 12.129442 7.039352 -2.579020 -17.078775 0.000000 0.000000 0.000000 14.797935 -38.874243 8.924289 -1.320233 -58.700327 -4.303446 19.078578 5.367733 0.684568 0.000000 0.000000 0.000000 -11.530548 28.431847 7.151703 30.232448 76.032241 19.277855 -20.967382 -2.020485 0.739654 0.000000 0.000000 0.000000 
-0.010275 0.899968 -0.073625 -3.879908 6.570678 -4.279352 10.461637 -0.358367 -17.564394 -4.981010 -0.507400 42.450579 4.197539 8.144459 -1.724191 0.000000 0.000000 0.000000 1.324097 2.415807 -24.252040 -4.186541 2.705849 44.270698 4.652054 10.021246 2.588689 0.000000 0.000000 0.000000 0.163358 -1.942635 30.242869 -1.850860 0.616870 8.553378 -5.933520 1.818677 12.869303 6.799163 -2.450977 -17.217104 0.000000 0.000000 0.000000 15.373427 -38.771150 8.702445 -0.636342 -58.637909 -4.596496 18.488091 4.729540 0.582514 0.000000 0.000000 0.000000 -11.987412 29.267551 7.216290 26.685869 77.251030 16.920097 -20.258174 -3.817852 0.968144 0.000000 0.000000 0.000000 
-0.010633 0.904507 -0.076456 -3.750387 6.354622 -4.150768 10.592374 -0.324534 -17.097227 -5.103414 -0.328616 40.937339 3.986624 7.933143 -1.067207 0.000000 0.000000 0.000000 1.148910 2.375737 -24.089946 -4.108643 2.672433 43.083152 4.925508 10.117284 3.425827 0.000000 0.000000 0.000000 0.043383 -1.872337 30.034541 -1.942994 0.668093 8.777465 -5.783693 2.166909 13.239398 6.887513 -2.412345 -17.664295 0.000000 0.000000 0.000000 16.507824 -38.484795 8.348425 -0.220194 -58.782570 -4.913394 18.807859 4.161911 0.518960 0.000000 0.000000 0.000000 -12.429317 29.115261 7.041422 25.428404 77.278286 16.054726 -20.639049 -3.959285 1.009560 0.000000 0.000000 0.000000 
-0.011009 0.907897 -0.079434 -3.613741 6.100840 -3.929273 10.590983 -0.310054 -16.682190 -5.075749 -0.224677 39.441592 3.979585 8.072368 -0.632743 0.000000 0.000000 0.000000 1.164721 2.368975 -23.833667 -4.266141 2.763453 41.928989 4.983701 10.037709 3.760282 0.000000 0.000000 0.000000 -0.135188 -1.770369 29.653387 -1.847006 0.622505 8.691594 -5.879689 2.334546 13.811604 6.702543 -2.233550 -18.054872 0.000000 0.000000 0.000000 17.301308 -37.688855 7.996112 0.769495 -58.496122 -5.426537 19.368225 3.200149 0.404668 0.000000 0.000000 0.000000 -12.453725 29.282172 7.055023 19.149357 76.550388 10.999908 -21.029250 -3.393657 0.936804 0.000000 0.000000 0.000000 
-0.011365 0.909253 -0.082137 -3.484178 5.847961 -3.894743 10.868645 -0.259738 -16.238353 -5.349006 -0.005515 38.225921 3.811620 7.702001 -0.696949 0.000000 0.000000 0.000000 0.986320 2.349360 -23.898316 -4.367182 2.860528 41.743701 5.115887 10.146700 4.056494 0.000000 0.000000 0.000000 -0.337342 -1.681792 29.494235 -1.925462 0.676797 8.685326 -5.723353 2.617328 14.118303 6.638549 -2.161379 -18.180779 0.000000 0.000000 0.000000 17.673540 -37.564941 7.872626 2.280757 -57.433233 -6.043792 20.547425 2.271304 0.288369 0.000000 0.000000 0.000000 -12.082778 28.866259 7.028444 15.406603 74.644697 7.801993 -22.125393 -0.961971 0.591097 0.000000 0.000000 0.000000 
-0.011608 0.908972 -0.084298 -3.347235 5.712439 -3.977253 10.657767 -0.270945 -15.933463 -5.508858 0.101468 37.864794 3.862929 7.824127 -0.649651 0.000000 0.000000 0.000000 1.041934 2.385026 -24.099724 -4.630199 3.034231 41.937475 5.211082 10.361698 4.057658 0.000000 0.000000 0.000000 -0.267879 -1.669307 29.268011 -1.990176 0.716189 8.774387 -5.865263 2.518213 14.438014 6.576070 -2.106932 -18.439298 0.000000 0.000000 0.000000 18.000015 -37.075782 7.686864 3.369184 -56.387679 -6.363114 21.757867 1.296030 0.146347 0.000000 0.000000 0.000000 -11.889482 29.099532 7.124255 12.164107 72.772687 5.110045 -23.863255 0.528001 0.378127 0.000000 0.000000 0.000000 
-0.011766 0.907624 -0.085868 -3.134662 5.837132 -4.242871 10.493613 -0.282512 -15.561165 -5.692293 0.167870 37.636961 4.029632 8.124784 -0.758070 0.000000 0.000000 0.000000 0.979017 2.366831 -24.103376 -4.901102 3.185824 42.584672 5.175858 10.472392 3.764394 0.000000 0.000000 0.000000 -0.151772 -1.698845 29.176989 -2.033988 0.739692 8.758738 -5.938391 2.241265 14.690527 6.383047 -1.996008 -18.625239 0.000000 0.000000 0.000000 17.702315 -36.818533 7.682574 3.893483 -55.372851 -6.370241 23.046999 0.810549 0.064719 0.000000 0.000000 0.000000 -11.466891 28.728902 7.125911 11.313714 71.390108 4.239394 -25.074252 2.167360 0.093135 0.000000 0.000000 0.000000 
-0.011883 0.906431 -0.087079 -2.911753 5.913761 -4.493275 10.292661 -0.296895 -15.278588 -6.040538 0.306307 37.732003 4.214302 8.644008 -0.333808 0.000000 0.000000 0.000000 1.019095 2.370076 -24.077943 -5.276137 3.389659 42.968983 5.253266 10.618699 3.811150 0.000000 0.000000 0.000000 0.131510 -1.750825 28.886793 -2.136802 0.793657 8.889110 -6.422965 1.914793 14.969824 6.338402 -1.939356 -19.075374 0.000000 0.000000 0.000000 17.375253 -36.609642 7.695159 3.525036 -54.499645 -6.005270 24.704479 0.186768 -0.055137 0.000000 0.000000 0.000000 -11.041659 28.947020 7.278239 11.200541 69.948197 3.888840 -26.286863 2.626182 0.013331 0.000000 0.000000 0.000000 
